<svg xmlns="http://www.w3.org/2000/svg" width="960" height="292" viewBox="0 0 960 292" role="img" aria-labelledby="title"><title id="title">Daily GitHub contributions, without interpolation or invented activity</title><style>text{font-family:Segoe UI,Arial,sans-serif}.mono{font-family:Consolas,Menlo,monospace}.label{fill:#9fb4a6;font-size:12px}.value{fill:#eef6f0;font-size:32px;font-weight:600}.small{fill:#9fb4a6;font-size:11px}</style><rect x=".5" y=".5" width="959" height="291" rx="14" fill="#101715" stroke="#2c3b34"/><text x="24" y="31" class="mono" fill="#7ee2b8" font-size="12" letter-spacing="1.5">ACTIVITY / 90 DAYS</text><text x="24" y="53" class="small" >2026-07-12 to 2026-10-09 · visible contributions</text><path d="M40 84H936" stroke="#24392c" stroke-dasharray="3 5"/><text x="31" y="88" class="small" text-anchor="end">5</text><path d="M40 150H936" stroke="#24392c" stroke-dasharray="3 5"/><text x="31" y="154" class="small" text-anchor="end">3</text><path d="M40 216H936" stroke="#24392c" stroke-dasharray="3 5"/><text x="31" y="220" class="small" text-anchor="end">0</text><path d="M40.00 216.00 L50.07 189.60 L60.13 189.60 L70.20 216.00 L80.27 216.00 L90.34 216.00 L100.40 216.00 L110.47 216.00 L120.54 216.00 L130.61 189.60 L140.67 189.60 L150.74 136.80 L160.81 136.80 L170.88 216.00 L180.94 216.00 L191.01 163.20 L201.08 216.00 L211.15 216.00 L221.21 216.00 L231.28 216.00 L241.35 216.00 L251.42 216.00 L261.48 216.00 L271.55 216.00 L281.62 216.00 L291.69 216.00 L301.75 216.00 L311.82 216.00 L321.89 216.00 L331.96 216.00 L342.02 216.00 L352.09 216.00 L362.16 216.00 L372.22 216.00 L382.29 216.00 L392.36 216.00 L402.43 216.00 L412.49 216.00 L422.56 216.00 L432.63 216.00 L442.70 216.00 L452.76 216.00 L462.83 216.00 L472.90 216.00 L482.97 216.00 L493.03 216.00 L503.10 216.00 L513.17 216.00 L523.24 216.00 L533.30 216.00 L543.37 216.00 L553.44 216.00 L563.51 216.00 L573.57 216.00 L583.64 216.00 L593.71 216.00 L603.78 216.00 L613.84 216.00 L623.91 216.00 L633.98 216.00 L644.04 216.00 L654.11 216.00 L664.18 216.00 L674.25 216.00 L684.31 216.00 L694.38 216.00 L704.45 216.00 L714.52 216.00 L724.58 216.00 L734.65 216.00 L744.72 216.00 L754.79 216.00 L764.85 216.00 L774.92 216.00 L784.99 216.00 L795.06 216.00 L805.12 216.00 L815.19 216.00 L825.26 189.60 L835.33 84.00 L845.39 216.00 L855.46 216.00 L865.53 216.00 L875.60 216.00 L885.66 216.00 L895.73 216.00 L905.80 216.00 L915.87 216.00 L925.93 216.00 L936.00 216.00 L936 216H40Z" fill="#7ee2b8" opacity=".06"/><path d="M40.00 216.00 L50.07 189.60 L60.13 189.60 L70.20 216.00 L80.27 216.00 L90.34 216.00 L100.40 216.00 L110.47 216.00 L120.54 216.00 L130.61 189.60 L140.67 189.60 L150.74 136.80 L160.81 136.80 L170.88 216.00 L180.94 216.00 L191.01 163.20 L201.08 216.00 L211.15 216.00 L221.21 216.00 L231.28 216.00 L241.35 216.00 L251.42 216.00 L261.48 216.00 L271.55 216.00 L281.62 216.00 L291.69 216.00 L301.75 216.00 L311.82 216.00 L321.89 216.00 L331.96 216.00 L342.02 216.00 L352.09 216.00 L362.16 216.00 L372.22 216.00 L382.29 216.00 L392.36 216.00 L402.43 216.00 L412.49 216.00 L422.56 216.00 L432.63 216.00 L442.70 216.00 L452.76 216.00 L462.83 216.00 L472.90 216.00 L482.97 216.00 L493.03 216.00 L503.10 216.00 L513.17 216.00 L523.24 216.00 L533.30 216.00 L543.37 216.00 L553.44 216.00 L563.51 216.00 L573.57 216.00 L583.64 216.00 L593.71 216.00 L603.78 216.00 L613.84 216.00 L623.91 216.00 L633.98 216.00 L644.04 216.00 L654.11 216.00 L664.18 216.00 L674.25 216.00 L684.31 216.00 L694.38 216.00 L704.45 216.00 L714.52 216.00 L724.58 216.00 L734.65 216.00 L744.72 216.00 L754.79 216.00 L764.85 216.00 L774.92 216.00 L784.99 216.00 L795.06 216.00 L805.12 216.00 L815.19 216.00 L825.26 189.60 L835.33 84.00 L845.39 216.00 L855.46 216.00 L865.53 216.00 L875.60 216.00 L885.66 216.00 L895.73 216.00 L905.80 216.00 L915.87 216.00 L925.93 216.00 L936.00 216.00" fill="none" stroke="#7ee2b8" stroke-width="2"/><text x="40" y="242" class="small" >2026-07-12</text><text x="936" y="242" class="small" text-anchor="end">2026-10-09</text><text x="24" y="275" class="small" >Updated 2026-10-09 UTC</text></svg>
